{"title":"Call it Murder aka Midnight(1934)MP-4[DaScubaDude]","uid":12964794,"size":863892965,"categoryP":"video","categoryS":"movies","magnet":"?xt=urn:btih:fef38659afbe5f6062731d820651efdf8abfd6aa&amp;dn=Call+it+Murder+aka+Midnight%281934%29MP-4%5BDaScubaDude%5D&amp;tr=udp%3A%2F%2Ftracker.leechers-paradise.org%3A6969&amp;tr=udp%3A%2F%2Fzer0day.ch%3A1337&amp;tr=udp%3A%2F%2Fopen.demonii.com%3A1337&amp;tr=udp%3A%2F%2Ftracker.coppersurfer.tk%3A6969&amp;tr=udp%3A%2F%2Fexodus.desync.com%3A6969","seeders":0,"leechers":2,"uploader":"dascuba","files":1,"time":1449880827,"description":"Jury foreman Edward Weldon's questioning leads to the death sentence for Ethel Saxon. His daughter Stella claims to have killed her lover, the gangster Gar Boni, just as Saxon was to sit in... See full summary »\r\nDirector: Chester Erskine (as Chester Erskin)\r\nWriters: Paul Sifton (play), Claire Sifton (play)\r\nStars: Humphrey Bogart, Sidney Fox, O.P. Heggie\r\n\r\nGeneral\r\nComplete name                            : Call it MurderCall it Murder.m4v\r\nFormat                                   : MPEG-4\r\nFormat profile                           : Base Media / Version 2\r\nCodec ID                                 : mp42\r\nFile size                                : 824 MiB\r\nDuration                                 : 1h 12mn\r\nOverall bit rate mode                    : Variable\r\nOverall bit rate                         : 1 580 Kbps\r\nEncoded date                             : UTC 2036-02-06 06:28:16\r\nTagged date                              : UTC 2036-02-06 06:28:16\r\nWriting application                      : HandBrake 0.10.2 2015060900\r\n\r\nVideo\r\nID                                       : 1\r\nFormat                                   : AVC\r\nFormat/Info                              : Advanced Video Codec\r\nFormat profile                           :   \r\nFormat settings, CABAC                   : Yes\r\nFormat settings, ReFrames                : 4 frames\r\nCodec ID                                 : avc1\r\nCodec ID/Info                            : Advanced Video Coding\r\nDuration                                 : 1h 12mn\r\nBit rate                                 : 1 413 Kbps\r\nWidth                                    : 718 pixels\r\nHeight                                   : 482 pixels\r\nDisplay aspect ratio                     : 4:3\r\nOriginal display aspect ratio            : 4:3\r\nFrame rate mode                          : Variable\r\nFrame rate                               : 29.970 fps\r\nMinimum frame rate                       : 14.985 fps\r\nMaximum frame rate                       : 29.970 fps\r\nColor space                              : YUV\r\nChroma subsampling                       : 4:2:0\r\nBit depth                                : 8 bits\r\nScan type                                : Progressive\r\nBits/(Pixel*Frame)                       : 0.136\r\nStream size                              : 737 MiB (89%)\r\nWriting library                          : x264 core 142 r2479 dd79a61\r\nEncoding settings                        : cabac=1 / ref=1 / deblock=1:0:0 / analyse=0x1:0x111 / me=hex / subme=2 / psy=1 / psy_rd=1.00:0.00 / mixed_ref=0 / me_range=16 / chroma_me=1 / trellis=0 / 8x8dct=0 / cqm=0 / deadzone=21,11 / fast_pskip=1 / chroma_qp_offset=0 / threads=3 / lookahead_threads=1 / sliced_threads=0 / nr=0 / decimate=1 / interlaced=0 / bluray_compat=0 / constrained_intra=0 / bframes=3 / b_pyramid=2 / b_adapt=1 / b_bias=0 / direct=1 / weightb=1 / open_gop=0 / weightp=1 / keyint=300 / keyint_min=30 / scenecut=40 / intra_refresh=0 / rc_lookahead=10 / rc=crf / mbtree=1 / crf=20.0 / qcomp=0.60 / qpmin=0 / qpmax=69 / qpstep=4 / vbv_maxrate=20000 / vbv_bufsize=25000 / crf_max=0.0 / nal_hrd=none / filler=0 / ip_ratio=1.40 / aq=1:1.00\r\nEncoded date                             : UTC 2036-02-06 06:28:16\r\nTagged date                              : UTC 2036-02-06 06:28:16\r\nColor range                              : Limited\r\nColor primaries                          : BT.601 NTSC\r\nTransfer characteristics                 : BT.709\r\nMatrix coefficients                      : BT.601\r\n\r\nAudio\r\nID                                       : 2\r\nFormat                                   : AAC\r\nFormat/Info                              : Advanced Audio Codec\r\nFormat profile                           : LC\r\nCodec ID                                 : 40\r\nDuration                                 : 1h 12mn\r\nBit rate mode                            : Variable\r\nBit rate                                 : 160 Kbps\r\nChannel(s)                               : 2 channels\r\nChannel positions                        : Front: L R\r\nSampling rate                            : 48.0 KHz\r\nCompression mode                         : Lossy\r\nStream size                              : 83.6 MiB (10%)\r\nTitle                                    : Stereo / Stereo\r\nLanguage                                 : English\r\nEncoded date                             : UTC 2036-02-06 06:28:16\r\nTagged date                              : UTC 2036-02-06 06:28:16\r\n\r\nMenu\r\nID                                       : 3\r\nCodec ID                                 : text\r\nDuration                                 : 1h 12mn\r\nLanguage                                 : English\r\nEncoded date                             : UTC 2036-02-06 06:28:16\r\nTagged date                              : UTC 2036-02-06 06:28:16\r\nBit rate mode                            : CBR\r\n00:00:00.000                             : Chapter 1\r\n00:01:37.798                             : Chapter 2\r\n00:11:20.280                             : Chapter 3\r\n00:28:16.795                             : Chapter 4\r\n00:35:16.348                             : Chapter 5\r\n00:44:04.609                             : Chapter 6\r\n00:56:54.478                             : Chapter 7","torrent":{"xt":"urn:btih:fef38659afbe5f6062731d820651efdf8abfd6aa","amp;dn":"Call+it+Murder+aka+Midnight%281934%29MP-4%5BDaScubaDude%5D","amp;tr":["udp%3A%2F%2Ftracker.leechers-paradise.org%3A6969","udp%3A%2F%2Fzer0day.ch%3A1337","udp%3A%2F%2Fopen.demonii.com%3A1337","udp%3A%2F%2Ftracker.coppersurfer.tk%3A6969","udp%3A%2F%2Fexodus.desync.com%3A6969"],"infoHash":"fef38659afbe5f6062731d820651efdf8abfd6aa","infoHashBuffer":{"type":"Buffer","data":[254,243,134,89,175,190,95,96,98,115,29,130,6,81,239,223,138,191,214,170]},"announce":[],"urlList":[]}}